<?xml version="1.0" encoding="UTF-8"?>
<svg width="262px" height="288px" viewBox="0 0 262 288" version="1.1" xmlns="http://www.w3.org/2000/svg" xmlns:xlink="http://www.w3.org/1999/xlink">
    <title>Shape</title>
    <defs>
        <linearGradient x1="50%" y1="0%" x2="50%" y2="100%" id="linearGradient-1">
            <stop stop-color="#4B17D9" offset="0%"></stop>
            <stop stop-color="#63A9CB" offset="99.7159091%"></stop>
        </linearGradient>
    </defs>
    <g id="Page-1" stroke="none" stroke-width="1" fill="none" fill-rule="evenodd">
        <path d="M148.54493,6.43945848 C170.307244,19.0039365 177.763564,46.8313 165.199086,68.5936144 L90.4859299,197.999634 L217,198 C241.852814,198 262,218.147186 262,243 C262,267.852814 241.852814,288 217,288 L82,288 C57.1471863,288 37,267.852814 37,243 C37,237.935681 37.8365759,233.066755 39.3790723,228.523877 C33.9528744,227.692583 28.5861715,225.856372 23.5449299,222.945809 C1.78261551,210.381331 -5.67370406,182.553968 6.890774,160.791654 L86.390774,23.0936144 C98.9552521,1.33129999 126.782616,-6.12501958 148.54493,6.43945848 Z M217,228 L82,228 C73.7157288,228 67,234.715729 67,243 C67,251.284271 73.7157288,258 82,258 L217,258 C225.284271,258 232,251.284271 232,243 C232,234.715729 225.284271,228 217,228 Z M112.371536,38.0936144 L32.8715361,175.791654 C28.5913293,183.205189 31.1313942,192.684841 38.5449299,196.965047 C45.9584655,201.245254 55.4381168,198.705189 59.7183236,191.291654 L139.218324,53.5936144 C143.49853,46.1800787 140.958466,36.7004274 133.54493,32.4202206 C126.131394,28.1400138 116.651743,30.6800787 112.371536,38.0936144 Z" id="Shape" fill="url(#linearGradient-1)" fill-rule="nonzero"></path>
    </g>
</svg>