<svg xmlns="http://www.w3.org/2000/svg" version="1.1" xmlns:xlink="http://www.w3.org/1999/xlink" width="515px" height="445px"><svg xmlns="http://www.w3.org/2000/svg" version="1.1" xmlns:xlink="http://www.w3.org/1999/xlink" width="515px" height="445px"><svg width="515px" height="445px" viewBox="0 0 515 445" version="1.1" xmlns="http://www.w3.org/2000/svg" xmlns:xlink="http://www.w3.org/1999/xlink">
    <title>Group</title>
    <g id="Page-1" stroke="none" stroke-width="1" fill="none" fill-rule="evenodd">
        <g id="Group">
            <path d="M452,382 L182,382 C81.4841755,382 0,300.515824 0,200 L0,182 C0,81.4841755 81.4841755,0 182,0 L308,0 C387.529004,0 452,64.470996 452,144 L452,382 Z" id="Path" fill="#393A35"></path>
            <circle id="Oval-2" fill="#393A35" cx="483.5" cy="413.5" r="31.5"></circle>
            <path d="M223,101.5 C223.690356,101.5 224.315356,101.779822 224.767767,102.232233 C225.220178,102.684644 225.5,103.309644 225.5,104 L225.5,220 C225.5,220.966498 225.891751,221.841498 226.525126,222.474874 C227.158502,223.108249 228.033502,223.5 229,223.5 L313,223.5 C313.690356,223.5 314.315356,223.779822 314.767767,224.232233 C315.220178,224.684644 315.5,225.309644 315.5,226 L315.5,287 C315.5,287.690356 315.220178,288.315356 314.767767,288.767767 C314.315356,289.220178 313.690356,289.5 313,289.5 L172,289.5 C171.309644,289.5 170.684644,289.220178 170.232233,288.767767 C169.779822,288.315356 169.5,287.690356 169.5,287 L169.5,104 C169.5,103.309644 169.779822,102.684644 170.232233,102.232233 C170.684644,101.779822 171.309644,101.5 172,101.5 Z" id="Path" stroke="#979797" fill="#FFFFFF"></path>
        </g>
    </g>
</svg></svg><style>@media (prefers-color-scheme: light) { :root { filter: none; } }
@media (prefers-color-scheme: dark) { :root { filter: none; } }
</style></svg>